<svg xmlns="http://www.w3.org/2000/svg" viewBox="0 0 2048 2048">
  <path d="M1024 5q141 0 271 36t243 103 207 159 159 206 102 244 37 271q0 141-36 271t-103 243-159 207-206 159-244 102-271 37q-141 0-271-36t-243-103-207-159-159-206-102-244-37-271q0-141 36-271t103-243 159-207 206-159T753 42t271-37zM549 255l4 2q34-8 65-8 47 0 101 12t107 32 104 44 92 48h4q39-25 90-49t107-43 109-31 100-12q32 0 62 6l4-2-1-5q-112-66-227-99t-246-33q-130 0-246 33T550 250l-1 5zM308 1570q-9-30-9-62 0-61 24-137t64-160 91-168 104-163 103-145 90-114l1-3-1-3q-17-17-43-42t-57-52-65-53-69-48-67-35-60-13q-4 0-13 1t-14 5q-65 63-115 138t-84 158-53 171-18 179q0 150 47 290t138 260l5 1 1-5zm716 361q137 0 266-39t242-117q22-14 46-31t43-37q14-14 20-33t6-39q0-56-34-127t-88-147-123-155-138-147-131-124-106-89l-3-2-3 2q-43 33-105 88t-132 125-137 147-123 154-89 148-34 127q0 20 6 39t20 33q19 19 43 36t46 32q112 77 241 116t267 40zm722-357q91-119 138-259t47-291q0-90-18-178t-52-172-85-158-115-138q-4-4-13-5t-13-1q-27 0-59 13t-67 34-69 48-66 54-57 52-43 42l-1 1-1 2 1 2q39 50 90 117t104 144 103 161 90 166 64 159 25 141q0 32-9 62l1 5 5-1z" />
</svg>