<svg xmlns="http://www.w3.org/2000/svg" viewBox="0 0 2048 2048">
  <path d="M768 2048q-25 0-48-10t-41-29-28-41-11-48h640q0 25-10 48t-29 41-41 28-48 11H768zm-128-384h640v128H640v-128zM960 0q149 0 277 54t223 148 148 224 54 278q0 79-25 148t-65 133-85 126-88 127-73 139-40 159H635q-5-58-17-108t-33-96-50-88-68-87q-45-51-83-101t-67-105-45-115-16-132q0-149 54-277t149-224T682 54 960 0zm64 1280H896v128h128v-128zm0-128v-55q0-31 5-64t15-62 28-47q43-43 80-79t66-74 45-84 17-111q0-67-24-125t-68-102-102-68-126-25q-68 0-126 24t-101 68-68 102-25 126v64h128v-64q0-41 14-76t41-61 61-40 76-15q41 0 76 14t61 41 40 61 15 76q0 15-2 32t-8 35-12 33-19 27L980 835q-20 21-36 52t-26 65-16 70-6 63v67h128z" />
</svg>