<?xml version="1.0" encoding="UTF-8"?>
<svg width="237px" height="162px" viewBox="0 0 237 162" version="1.1" xmlns="http://www.w3.org/2000/svg" xmlns:xlink="http://www.w3.org/1999/xlink">
    <!-- Generator: Sketch 52.6 (67491) - http://www.bohemiancoding.com/sketch -->
    <title>logo-white</title>
    <desc>Created with Sketch.</desc>
    <defs>
        <rect id="path-1" x="0" y="0" width="236.145179" height="161.219363"></rect>
    </defs>
    <g id="Page-1" stroke="none" stroke-width="1" fill="none" fill-rule="evenodd">
        <g id="Artboard" transform="translate(-1171.000000, -213.000000)">
            <g id="logo-white" transform="translate(1171.000000, 213.000000)">
                <mask id="mask-2" fill="white">
                    <use xlink:href="#path-1"></use>
                </mask>
                <g id="Rectangle_904"></g>
                <g id="Group_1512" mask="url(#mask-2)">
                    <path d="M232.97809,2.93625 C230.873055,0.902530234 228.011425,-0.155596339 225.089231,0.0192375 L9.78080769,13.2111 C6.98703487,13.3819832 4.37959604,14.6696309 2.54612081,16.7838504 C0.712645575,18.89807 -0.19258569,21.6609573 0.0344358974,24.44985 L7.67312821,118.184062 C8.09977121,123.41554 12.3533875,127.512472 17.5987692,127.744088 L160.317333,134.055 L160.317333,161.219363 L176.230769,134.758688 L221.7925,136.77255 C224.578261,136.895487 227.297026,135.896749 229.340334,133.999857 C231.383641,132.102964 232.580883,129.466299 232.664115,126.67995 L236.137077,10.7274375 C236.226227,7.80196178 235.079635,4.97405634 232.97809,2.93625" id="Path_2055" fill="#FFFFFF"></path>
                    <path d="M35.3545256,29.4678 L38.0476154,29.4678 L38.0476154,56.6098875 C40.0070041,52.5108273 44.2081811,49.9603947 48.7500897,50.112675 C55.0295769,50.112675 59.2459487,54.2426625 59.2459487,61.0790625 L59.2459487,78.33915 L56.5518462,78.33915 L56.5518462,61.5529125 C56.5518462,55.8667125 53.8597692,52.5497625 48.4037051,52.5497625 C42.3267821,52.5497625 38.0466026,56.4762375 38.0466026,62.906625 L38.0466026,78.33915 L35.3545256,78.33915 L35.3545256,29.4678 Z" id="Path_2056" fill="#13017C"></path>
                    <path d="M84.3071795,61.0092 C84.3071795,54.7833375 81.4074744,52.413075 76.7809103,52.413075 C73.0920286,52.2353298 69.5895421,54.0425924 67.5976667,57.151575 L65.6641923,55.7978625 C68.1622908,52.1004744 72.3905397,49.9516193 76.8507949,50.112675 C82.6512179,50.112675 87.0002692,53.5653 87.0002692,60.743925 L87.0002692,78.3381375 L84.3071795,78.3381375 L84.4459359,74.0745 C82.2494392,77.2508435 78.5677666,79.0679338 74.7096923,78.879825 C68.2873974,78.879825 64.0750769,75.9688875 64.0750769,70.4183625 C64.0750769,64.935675 68.978141,62.3629125 74.3633077,62.3629125 L84.3061667,62.3629125 L84.3071795,61.0092 Z M74.7096923,64.5296625 C70.4285,64.5296625 66.7691795,66.1496625 66.7691795,70.3495125 C66.7691795,74.5493625 69.6000128,76.50855 74.9861923,76.50855 C79.6816282,76.50855 84.304141,73.8021375 84.304141,69.5374875 L84.304141,64.530675 L74.7096923,64.5296625 Z" id="Path_2057" fill="#13017C" fill-rule="nonzero"></path>
                    <path d="M94.1852179,50.7211875 L96.8783077,50.7211875 L96.8053846,56.884275 C98.6701898,52.6354647 102.938286,49.953052 107.576731,50.1147 C113.856218,50.1147 118.07259,54.2446875 118.07259,61.0790625 L118.07259,78.3381375 L115.378487,78.3381375 L115.378487,61.5519 C115.378487,55.8667125 112.68641,52.5497625 107.230346,52.5497625 C101.153423,52.5497625 96.8732436,56.475225 96.8732436,62.9056125 L96.8732436,78.3381375 L94.1852179,78.3381375 L94.1852179,50.7211875 Z" id="Path_2058" fill="#13017C"></path>
                    <path d="M122.627244,71.970525 L124.974962,70.958025 C126.494192,74.206125 129.187282,76.5075375 133.95159,76.5075375 C138.232782,76.5075375 140.995756,74.4096375 140.995756,71.229375 C140.995756,67.438575 138.301654,66.490875 133.197038,64.93365 C128.436782,63.5799375 124.49691,61.954875 124.49691,57.0148875 C124.49691,52.9527375 128.226115,50.11065 132.920538,50.11065 C136.672485,49.9524686 140.175091,51.9858896 141.897167,55.3219875 L139.825949,56.5369875 C138.471974,53.9832643 135.811673,52.3921914 132.920538,52.407 C129.33009,52.407 127.052256,54.2365875 127.052256,56.876175 C127.052256,60.0564375 128.774051,61.071975 134.302026,62.696025 C139.410692,64.186425 143.69391,66.012975 143.69391,71.1574875 C143.69391,75.5568 140.241205,78.87375 133.956654,78.87375 C128.018487,78.87375 124.22041,75.6914625 122.632308,71.9695125" id="Path_2059" fill="#13017C"></path>
                    <path d="M146.794154,64.4628375 C146.705119,58.5301701 150.207863,53.1307813 155.662652,50.7922817 C161.11744,48.4537821 167.444807,49.6389441 171.68273,53.792959 C175.920653,57.9469739 177.230476,64.2477917 174.999033,69.7458167 C172.767591,75.2438417 167.436469,78.8510539 161.501321,78.8788125 C157.632331,78.9386286 153.900271,77.4482647 151.137364,74.7400617 C148.374458,72.0318586 146.810468,68.3310309 146.794154,64.4628375 M173.308782,64.4628375 C173.308782,57.6264375 168.548526,52.481925 161.501321,52.481925 C158.29431,52.3738228 155.186546,53.6026592 152.92121,55.8745741 C150.655874,58.146489 149.436651,61.2572059 149.555103,64.4628375 C149.555103,71.2992375 154.458167,76.5115875 161.501321,76.5115875 C168.544474,76.5115875 173.308782,71.30025 173.308782,64.4628375" id="Path_2060" fill="#13017C" fill-rule="nonzero"></path>
                    <path d="M181.317154,50.7211875 L184.009231,50.7211875 L183.941372,56.884275 C185.8064,52.6356568 190.07435,49.9533361 194.712718,50.1147 C200.992205,50.1147 205.208577,54.2446875 205.208577,61.0790625 L205.208577,78.3381375 L202.514474,78.3381375 L202.514474,61.5519 C202.514474,55.8667125 199.822397,52.5497625 194.368359,52.5497625 C188.291436,52.5497625 184.010244,56.475225 184.010244,62.9056125 L184.010244,78.3381375 L181.318167,78.3381375 L181.317154,50.7211875 Z" id="Path_2061" fill="#13017C"></path>
                    <path d="M34.8217821,97.287075 C34.8049916,95.7211901 35.4161285,94.2137879 36.518736,93.1014466 C37.6213435,91.9891052 39.1235956,91.3644613 40.6900641,91.3669875 C42.3730851,91.2907232 43.9963256,91.9990533 45.0846923,93.2846625 L44.290641,93.9245625 C43.4188543,92.8435717 42.0762671,92.2530958 40.6900641,92.3410125 C38.0593908,92.4715561 35.9935065,94.6418461 35.9935065,97.274925 C35.9935065,99.9080039 38.0593908,102.078294 40.6900641,102.208838 C42.1649471,102.294771 43.5903978,101.662611 44.5165,100.511888 L45.3105513,101.151787 C44.1819335,102.525274 42.4652432,103.27764 40.6900641,103.176788 C39.1269842,103.185537 37.6257266,102.567071 36.5226364,101.459953 C35.4195463,100.352834 34.8068373,98.8496134 34.8217821,97.287075" id="Path_2062" fill="#13017C"></path>
                    <path d="M46.8429487,97.258725 C46.8068438,94.8229471 48.2453195,92.6063713 50.4850258,91.6465762 C52.7247322,90.686781 55.3224818,91.1736883 57.0622688,92.8793769 C58.8020557,94.5850655 59.3396155,97.172018 58.4233165,99.4292828 C57.5070175,101.686548 55.3181747,103.167463 52.8813846,103.178812 C51.2925533,103.203721 49.7598677,102.591759 48.6253679,101.479494 C47.490868,100.36723 46.8489795,98.8472374 46.8429487,97.258725 M57.7287436,97.258725 C57.7287436,94.5667925 55.5458103,92.38455 52.8530256,92.38455 C50.160241,92.38455 47.9773077,94.5667925 47.9773077,97.258725 C47.9413178,99.0237822 48.8626727,100.67038 50.3860246,101.563458 C51.9093766,102.456536 53.7966747,102.456536 55.3200266,101.563458 C56.8433786,100.67038 57.7647335,99.0237822 57.7287436,97.258725" id="Path_2063" fill="#13017C" fill-rule="nonzero"></path>
                    <path d="M61.5865769,91.617075 L62.6925769,91.617075 L62.6632051,94.148325 C63.4302592,92.4053193 65.1814408,91.3046614 67.0851795,91.3690125 C69.6658462,91.3690125 71.3957436,93.0659625 71.3957436,95.8726125 L71.3957436,102.960112 L70.2887308,102.960112 L70.2887308,96.0649875 C70.2887308,93.7301625 69.1837436,92.36835 66.9464231,92.36835 C65.7968637,92.2933248 64.6707252,92.7172046 63.8561336,93.5315384 C63.041542,94.3458723 62.617528,95.4716544 62.6925769,96.62085 L62.6925769,102.957075 L61.5865769,102.957075 L61.5865769,91.617075 Z" id="Path_2064" fill="#13017C"></path>
                    <path d="M73.8346154,100.344825 L74.7988205,99.927675 C75.4162855,101.394806 76.8955561,102.309965 78.4844744,102.207825 C80.2427308,102.207825 81.3770897,101.346187 81.3770897,100.03905 C81.3770897,98.481825 80.2710897,98.093025 78.1735385,97.4541375 C76.2167692,96.898275 74.6013205,96.2310375 74.6013205,94.2019875 C74.6013205,92.5344 76.1316923,91.3669875 78.0590897,91.3669875 C79.5998403,91.3017778 81.0381958,92.1370956 81.7447436,93.5074125 L80.8949872,94.0086 C80.3390215,92.9597862 79.2464251,92.3063863 78.0590897,92.3126625 C76.5854359,92.3126625 75.6495897,93.062925 75.6495897,94.1473125 C75.6495897,95.4534375 76.3585641,95.8685625 78.6252564,96.537825 C80.7238205,97.145325 82.4810641,97.8996375 82.4810641,100.012725 C82.4810641,101.819025 81.0631154,103.180837 78.4834615,103.180837 C76.4961135,103.289352 74.6474916,102.162009 73.8346154,100.345838" id="Path_2065" fill="#13017C"></path>
                    <path d="M84.9766538,98.7602625 L84.9766538,91.617075 L86.0826538,91.617075 L86.0826538,98.5932 C86.0826538,100.900687 87.187641,102.206812 89.3986282,102.206812 C90.5469407,102.277129 91.6702752,101.851729 92.4837767,101.038485 C93.2972781,100.225241 93.722813,99.1022616 93.6524744,97.9543125 L93.6524744,91.6160625 L94.7584744,91.6160625 L94.7584744,102.956062 L93.6545,102.956062 L93.682859,100.455187 C92.9174612,102.183001 91.1783757,103.272291 89.2892436,103.207163 C88.1013573,103.277555 86.9418215,102.826601 86.11382,101.97221 C85.2858185,101.11782 84.8716811,99.9449468 84.9796923,98.7602625" id="Path_2066" fill="#13017C"></path>
                    <rect id="Rectangle_903" fill="#13017C" x="98.5565513" y="82.889325" width="1.106" height="20.0687625"></rect>
                    <path d="M103.914372,99.9590625 L103.914372,92.5344 L102.10041,92.5344 L102.10041,91.617075 L103.914372,91.617075 L103.914372,85.6969875 L105.020372,85.6969875 L105.020372,91.617075 L108.362679,91.617075 L108.362679,92.5344 L105.020372,92.5344 L105.020372,99.92565 C105.020372,101.59425 105.614897,102.2058 106.579103,102.2058 C107.291825,102.246756 107.979638,101.937169 108.421423,101.376562 L109.130397,102.042788 C108.511281,102.809288 107.562265,103.232821 106.57809,103.18185 C105.104436,103.18185 103.913359,102.264525 103.913359,99.95805" id="Path_2067" fill="#13017C"></path>
                    <path d="M110.832949,86.724675 C110.849555,86.2202374 111.263418,85.8198982 111.768288,85.8198982 C112.273159,85.8198982 112.687021,86.2202374 112.703628,86.724675 C112.687021,87.2291126 112.273159,87.6294518 111.768288,87.6294518 C111.263418,87.6294518 110.849555,87.2291126 110.832949,86.724675 Z M111.229974,91.617075 L112.335974,91.617075 L112.335974,102.957075 L111.229974,102.957075 L111.229974,91.617075 Z" id="Path_2068" fill="#13017C" fill-rule="nonzero"></path>
                    <path d="M115.96491,91.617075 L117.069897,91.617075 L117.041538,94.148325 C117.808731,92.4049676 119.560423,91.3042407 121.464526,91.3690125 C124.043167,91.3690125 125.774077,93.0659625 125.774077,95.8726125 L125.774077,102.960112 L124.668077,102.960112 L124.668077,96.0649875 C124.668077,93.7301625 123.562077,92.36835 121.325769,92.36835 C120.17621,92.2933248 119.050071,92.7172046 118.23548,93.5315384 C117.420888,94.3458723 116.996874,95.4716544 117.071923,96.62085 L117.071923,102.957075 L115.96491,102.957075 L115.96491,91.617075 Z" id="Path_2069" fill="#13017C"></path>
                    <path d="M139.098744,91.617075 L139.098744,92.5344 L136.490731,92.5344 C137.299485,93.2290934 137.756525,94.2479231 137.737513,95.3137125 C137.73256,96.4303036 137.261594,97.4941447 136.43821,98.2486429 C135.614825,99.003141 134.513771,99.3798012 133.400615,99.287775 C132.602693,99.3114843 131.81206,99.1298393 131.104551,98.7602625 C130.360464,98.7794406 129.761951,99.3782092 129.743321,100.122075 C129.743321,100.983713 130.366205,101.401875 131.415487,101.483888 L134.420526,101.762325 C137.762833,102.066075 139.268897,103.067438 139.268897,105.204825 C139.268897,107.7057 136.688231,109.153575 133.230462,109.153575 C129.743321,109.153575 127.447256,107.791763 127.447256,105.428588 C127.447256,103.707338 128.695051,102.76065 130.452295,102.259463 C129.46901,102.086152 128.751797,101.232597 128.750756,100.234463 C128.769631,99.2861373 129.419454,98.4670722 130.338859,98.23275 C129.463432,97.5186225 128.961837,96.4441709 128.976615,95.314725 C128.976615,93.0072375 130.848308,91.365975 133.399603,91.365975 C133.939013,91.362965 134.475342,91.4474238 134.987705,91.6160625 L139.098744,91.617075 Z M128.581615,105.403275 C128.581615,107.210588 130.197064,108.210938 133.230462,108.210938 C136.036987,108.210938 138.161885,107.182237 138.161885,105.208875 C138.161885,103.65165 137.283769,102.957075 134.278731,102.735337 L131.840872,102.568275 C129.970192,102.93075 128.580603,103.792387 128.580603,105.403275 L128.581615,105.403275 Z M136.658859,95.314725 C136.691543,94.4604197 136.350146,93.6342982 135.723842,93.0521501 C135.097538,92.4700019 134.248531,92.1896456 133.39859,92.2843125 C131.328385,92.2843125 130.082615,93.4790625 130.082615,95.314725 C130.207439,97.0380191 131.642384,98.3723937 133.370737,98.3723937 C135.09909,98.3723937 136.534035,97.0380191 136.658859,95.314725 Z" id="Path_2070" fill="#13017C" fill-rule="nonzero"></path>
                    <path d="M156.846397,91.617075 L156.846397,92.5344 L154.236359,92.5344 C155.045839,93.2286398 155.503342,94.2476708 155.484154,95.3137125 C155.479201,96.4303036 155.008235,97.4941447 154.184851,98.2486429 C153.361466,99.003141 152.260412,99.3798012 151.147256,99.287775 C150.349334,99.3114843 149.558701,99.1298393 148.851192,98.7602625 C148.107105,98.7794406 147.508592,99.3782092 147.489962,100.122075 C147.489962,100.983713 148.112846,101.401875 149.162128,101.483888 L152.166154,101.762325 C155.508462,102.066075 157.015538,103.067438 157.015538,105.204825 C157.015538,107.7057 154.434872,109.153575 150.977103,109.153575 C147.489962,109.153575 145.193897,107.791763 145.193897,105.428588 C145.193897,103.707338 146.441692,102.76065 148.198936,102.259463 C147.215651,102.086152 146.498438,101.232597 146.497397,100.234463 C146.516272,99.2861373 147.166095,98.4670722 148.0855,98.23275 C147.210073,97.5186225 146.708478,96.4441709 146.723256,95.314725 C146.723256,93.0072375 148.594949,91.365975 151.146244,91.365975 C151.685646,91.3630722 152.221958,91.4475283 152.734346,91.6160625 L156.846397,91.617075 Z M146.331295,105.403275 C146.331295,107.210588 147.946744,108.210938 150.980141,108.210938 C153.786667,108.210938 155.911564,107.182237 155.911564,105.208875 C155.911564,103.65165 155.034462,102.957075 152.02841,102.735337 L149.590551,102.568275 C147.719872,102.93075 146.330282,103.792387 146.330282,105.403275 L146.331295,105.403275 Z M154.408538,95.314725 C154.441223,94.4604197 154.099825,93.6342982 153.473521,93.0521501 C152.847217,92.4700019 151.998211,92.1896456 151.148269,92.2843125 C149.078064,92.2843125 147.830269,93.4790625 147.830269,95.314725 C147.95853,97.0356467 149.392659,98.3664774 151.118897,98.3664774 C152.845135,98.3664774 154.279265,97.0356467 154.407526,95.314725 L154.408538,95.314725 Z" id="Path_2071" fill="#13017C" fill-rule="nonzero"></path>
                    <path d="M158.975346,91.617075 L160.080333,91.617075 L160.051974,93.8962125 C160.519158,92.4219074 161.879799,91.4135882 163.426692,91.3953375 C164.171696,91.3457336 164.91132,91.551834 165.523231,91.97955 L164.98441,92.868525 C164.485152,92.5271229 163.886753,92.3608348 163.282872,92.3956875 C161.639064,92.3956875 160.079321,93.7575 160.079321,96.5084625 L160.079321,102.957075 L158.974333,102.957075 L158.975346,91.617075 Z" id="Path_2072" fill="#13017C"></path>
                    <path d="M166.288923,97.258725 C166.252821,94.8230396 167.69119,92.6065309 169.930771,91.6466793 C172.170352,90.6868276 174.768019,91.173551 176.507883,92.8790289 C178.247747,94.5845069 178.785555,97.1712906 177.869576,99.4285851 C176.953597,101.68588 174.765067,103.167053 172.328372,103.178812 C170.739447,103.203719 169.206658,102.591788 168.071998,101.479553 C166.937338,100.367318 166.295224,98.84733 166.288923,97.258725 M177.174718,97.258725 C177.174718,95.5173499 176.245411,93.908253 174.736859,93.0375654 C173.228307,92.1668778 171.369693,92.1668778 169.861141,93.0375654 C168.352589,93.908253 167.423282,95.5173499 167.423282,97.258725 C167.387292,99.0237822 168.308647,100.67038 169.831999,101.563458 C171.355351,102.456536 173.242649,102.456536 174.766001,101.563458 C176.289353,100.67038 177.210708,99.0237822 177.174718,97.258725" id="Path_2073" fill="#13017C" fill-rule="nonzero"></path>
                    <path d="M180.920128,98.7602625 L180.920128,91.617075 L182.025115,91.617075 L182.025115,98.5932 C182.025115,100.900687 183.131115,102.206812 185.34109,102.206812 C186.489491,102.277463 187.613024,101.852171 188.426603,101.038849 C189.240182,100.225528 189.665609,99.1023505 189.594936,97.9543125 L189.594936,91.6160625 L190.700936,91.6160625 L190.700936,102.956062 L189.594936,102.956062 L189.624308,100.455187 C188.85855,102.183161 187.119099,103.272429 185.229679,103.207162 C184.041964,103.277248 182.88271,102.826158 182.05494,101.971806 C181.227171,101.117453 180.813164,99.9447606 180.921141,98.7602625" id="Path_2074" fill="#13017C"></path>
                    <path d="M194.358231,91.617075 L195.464231,91.617075 L195.407513,94.3963875 C196.323762,92.5003538 198.264589,91.3152398 200.370333,91.365975 C203.566055,91.4595152 206.108161,94.0763141 206.108161,97.2723938 C206.108161,100.468473 203.566055,103.085272 200.370333,103.178813 C198.305485,103.192328 196.409046,102.042136 195.467269,100.2051 L195.467269,108.848813 L194.361269,108.848813 L194.358231,91.617075 Z M204.932077,97.258725 C205.021054,95.9664207 204.56144,94.6964169 203.665948,93.7601668 C202.770456,92.8239167 201.521914,92.3080176 200.226513,92.3389875 C197.539688,92.3934053 195.390018,94.5863747 195.390018,97.2729 C195.390018,99.9594253 197.539688,102.152395 200.226513,102.206812 C201.525113,102.231549 202.774359,101.709701 203.669271,100.768665 C204.564183,99.8276299 205.022407,98.5540063 204.932077,97.258725 Z" id="Path_2075" fill="#13017C" fill-rule="nonzero"></path>
                </g>
            </g>
        </g>
    </g>
</svg>